# xmcd CD database file
#
# Track frame offsets:
#	150
#	12050
#	28797
#	42827
#	55872
#	69150
#	81957
#	95902
#	109435
#	120495
#	136617
#	149687
#	166772
#	181185
#
# Disc length: 2590 seconds
#
# Revision: 0
# Processed by: cddbd v1.5PL3 Copyright (c) Steve Scherf et al.
# Submitted via: CDex 1.51
#
DISCID=b70a1c0e
DTITLE=オムニバス - 懐かしのデビュー・シングル・コレクション
DYEAR=1991
DGENRE=J-pop
TTITLE0=としごろ/山口百恵
TTITLE1=裸足の季節/松田聖子
TTITLE2=赤い風船/浅田美代子
TTITLE3=オリビアの調べ/フォーリープス
TTITLE4=男の子女の子/郷ひろみ
TTITLE5=１７歳/南沙織
TTITLE6=水色の恋/天地真理
TTITLE7=青い麦/伊丹幸雄
TTITLE8=娘ごころ/水沢アキ
TTITLE9=トライアングル・ラブ・レター/トライアングル
TTITLE10=NAI-NAI_16/シブがき隊
TTITLE11=逃避行/麻生よう子
TTITLE12=あなたに夢中/キャンディーズ
TTITLE13=雨だれ/太田裕美
EXTD=YEAR: 1991
EXTT0=
EXTT1=
EXTT2=
EXTT3=
EXTT4=
EXTT5=
EXTT6=
EXTT7=
EXTT8=
EXTT9=
EXTT10=
EXTT11=
EXTT12=
EXTT13=
PLAYORDER=
